<svg xmlns="http://www.w3.org/2000/svg" viewBox="0 0 235.21 206.46"><defs><style>.cls-1{font-size:40.52px;fill:#0384f9;}.cls-1,.cls-2,.cls-3,.cls-4{font-family:Phosphate-Inline, Phosphate;}.cls-2,.cls-3{font-size:95px;}.cls-2{fill:#fc0000;}.cls-3{fill:#ffea2c;}.cls-4{font-size:150px;fill:#45ff00;}</style></defs><g id="Ebene_2" data-name="Ebene 2"><g id="Ebene_1-2" data-name="Ebene 1"><text class="cls-1" transform="translate(33.13 112.66) rotate(-79.36) scale(0.99 1)">F</text><text class="cls-1" transform="translate(35.74 96.32) rotate(-66.72) scale(0.99 1)">r</text><text class="cls-1" transform="translate(44.82 76.27) rotate(-55.96) scale(0.99 1)">i</text><text class="cls-1" transform="translate(50.58 67.12) rotate(-46.67) scale(0.99 1)">e</text><text class="cls-1" transform="translate(61.75 54.39) rotate(-33.11) scale(0.99 1)">n</text><text class="cls-1" transform="matrix(0.94, -0.29, 0.29, 0.96, 81.55, 41.19)">d</text><text class="cls-1" transform="matrix(0.98, -0.11, 0.11, 0.99, 104.8, 34.76)"> </text><text class="cls-1" transform="translate(111.77 33.51) rotate(1.76) scale(0.99 1)">T</text><text class="cls-1" transform="matrix(0.94, 0.29, -0.29, 0.96, 128.88, 33.09)">o</text><text class="cls-1" transform="translate(155.49 42.22) rotate(28.8) scale(0.99 1)"> </text><text class="cls-1" transform="matrix(0.77, 0.62, -0.62, 0.78, 161.94, 44.91)">Y</text><text class="cls-1" transform="matrix(0.57, 0.81, -0.82, 0.57, 179.38, 57.98)">o</text><text class="cls-1" transform="translate(195.26 80.74) rotate(71.56) scale(0.99 1)">u</text><text class="cls-2" transform="translate(53.59 120.1)">F</text><text class="cls-3" transform="translate(134.83 120.1)">U</text><text class="cls-4" transform="translate(85.42 133.65) scale(0.9 1)">2</text></g></g></svg>