<svg xmlns="http://www.w3.org/2000/svg" viewBox="0 0 581.23 460.44"><defs><style>.cls-1{font-size:90px;fill:#0384f9;}.cls-1,.cls-2,.cls-3,.cls-4{font-family:Phosphate-Inline, Phosphate;}.cls-2,.cls-3{font-size:259.41px;}.cls-2{fill:#fc0000;}.cls-3{fill:#ffea2c;}.cls-4{font-size:409.6px;fill:#45ff00;}</style></defs><g id="Ebene_2" data-name="Ebene 2"><g id="Ebene_1-2" data-name="Ebene 1"><text class="cls-1" transform="matrix(0.24, -0.97, 0.97, 0.24, 72.68, 213.48)">F</text><text class="cls-1" transform="translate(79.39 178.58) rotate(-54.75)">r</text><text class="cls-1" transform="matrix(0.76, -0.65, 0.65, 0.76, 108.66, 139.52)">i</text><text class="cls-1" transform="matrix(0.86, -0.52, 0.52, 0.86, 126.61, 123.17)">e</text><text class="cls-1" transform="translate(159.31 102.44) rotate(-19.9)">n</text><text class="cls-1" transform="translate(210.79 83.7) rotate(-9.18)">d</text><text class="cls-1" transform="translate(265.71 75.85) rotate(-2.82)"> </text><text class="cls-1" transform="translate(282.4 74.47) rotate(2.06)">T</text><text class="cls-1" transform="translate(322.15 74.66) rotate(11.31)">o</text><text class="cls-1" transform="matrix(0.94, 0.33, -0.33, 0.94, 385.09, 88.78)"> </text><text class="cls-1" transform="translate(400.75 92.84) rotate(26.98)">Y</text><text class="cls-1" transform="translate(445.52 113.35) rotate(43.47)">o</text><text class="cls-1" transform="matrix(0.37, 0.93, -0.93, 0.37, 490.48, 154.79)">u</text><text class="cls-2" transform="translate(99.7 311.2) scale(1.07 1)">F</text><text class="cls-3" transform="translate(336.48 311.2) scale(1.07 1)">U</text><text class="cls-4" transform="translate(192.46 348.21) scale(0.97 1)">2</text><text/></g></g></svg>